<svg xmlns="http://www.w3.org/2000/svg" width="260.053" height="60.891" viewBox="0 0 260.053 60.891">
  <g id="akerva-logo" transform="translate(-60 -59.587)">
    <path id="Path_7" data-name="Path 7" d="M81.46,97.32H69l-3.65,8.09H60L75.22,72.74l15.21,32.67H85Zm-1.81-4.26-3.2-7.17a28.41,28.41,0,0,1-1.19-3.56,23.76,23.76,0,0,1-1.15,3.56l-3.2,7.17Z" fill="#a4b1cd"/>
    <path id="Path_8" data-name="Path 8" d="M97.77,74h5.1V87l11.3-13h6.25L108,88l13.94,17.45h-6.59l-12.45-16v16H97.8Z" fill="#a4b1cd"/>
    <path id="Path_9" data-name="Path 9" d="M129.43,74H147v4.36H134.53v7.86H147v4.49H134.53v10.15H147v4.58H129.43Z" fill="#a4b1cd"/>
    <path id="Path_10" data-name="Path 10" d="M162,105.41h-4.79V74h7.12c3.39,0,5.89.27,7.83,1.76a8.59,8.59,0,0,1,3,6.91c0,5-2.47,7.91-7.21,8.48l10.82,14.29h-5.76L162.6,91.34H162v14.07Zm1.23-18c4.48,0,6.73-.52,6.73-4.31s-2.15-4.7-6.73-4.7h-.92v9Z" fill="#a4b1cd"/>
    <path id="Path_11" data-name="Path 11" d="M182.21,74h5.32l7,16.76a26.87,26.87,0,0,1,1.67,5,32.36,32.36,0,0,1,1.71-5L205,74h5.28l-14,32.68Z" fill="#a4b1cd"/>
    <path id="Path_12" data-name="Path 12" d="M234.21,97.32H221.76l-3.64,8.09h-5.37L228,72.74l15.21,32.67H237.8Zm-1.81-4.26-3.21-7.17A30.173,30.173,0,0,1,228,82.33a24,24,0,0,1-1.14,3.56l-3.21,7.17Z" fill="#a4b1cd"/>
    <path id="Path_13" data-name="Path 13" d="M292.52,97.67V91.58l.06-.06,6.15,6.15h5.39l-8.85-8.84,7.45-7.45h-5.39l-4.81,4.81v-7.9l-3.79,3.85L273.01,97.86l5.4-.02,10.3-10.29V97.67Z" fill="#a4b1cd"/>
    <path id="Path_14" data-name="Path 14" d="M271.9,101a20.73,20.73,0,0,1,28.58-28.59l7-7A30.5,30.5,0,0,0,264.87,108Z" fill="#a4b1cd"/>
    <path id="Path_15" data-name="Path 15" d="M314.35,72.34l-7.05,7a20.72,20.72,0,0,1-28.43,28.43l-7,7.05a30.49,30.49,0,0,0,42.52-42.53Z" fill="#a4b1cd"/>
  </g>
</svg>
