<svg xmlns="http://www.w3.org/2000/svg" width="260.003" height="65.66" viewBox="0 0 260.003 65.66">
  <g id="logos_grey-10" transform="translate(-59.997 -57.16)">
    <path id="Path_16" data-name="Path 16" d="M131.09,74.29a1.24,1.24,0,0,0-.36.82V88.56a1,1,0,0,0,.36.82v.05a1,1,0,0,0,.83.36h9a1.1,1.1,0,0,0,.83-.36l2.88-2.88,4.07,4.07-3.71,3.71a3.77,3.77,0,0,1-2.83,1.13H130.78A4,4,0,0,1,128,94.33l-2.52-2.53a3.93,3.93,0,0,1-1.19-2.93V74.75a4.17,4.17,0,0,1,1.19-2.94L128,69.29a3.77,3.77,0,0,1,2.83-1.13h11.44a4,4,0,0,1,2.83,1.13L148.76,73l-4.07,4.07-2.88-2.89a1.26,1.26,0,0,0-.83-.36h-9a1.14,1.14,0,0,0-.83.36Zm46.57-2.48a4.21,4.21,0,0,1,1.19,2.94v14a4.42,4.42,0,0,1-1.19,3l-2.52,2.53a3.79,3.79,0,0,1-2.84,1.13H160.1a3.79,3.79,0,0,1-2.79-1.13l-2.52-2.53a3.93,3.93,0,0,1-1.19-2.93V74.75a4.21,4.21,0,0,1,1.19-2.94l2.52-2.52a3.68,3.68,0,0,1,2.79-1.13h12.2a4,4,0,0,1,2.84,1.13Zm-5.36,3.25a1,1,0,0,0-.36-.82l-.05-.06a1.2,1.2,0,0,0-.77-.36h-9.84a1.1,1.1,0,0,0-.82.36l-.06.06a1.22,1.22,0,0,0-.36.82V88.51a1,1,0,0,0,.36.82h.06a1.07,1.07,0,0,0,.82.36h9.84a1,1,0,0,0,.77-.36h.05a1.19,1.19,0,0,0,.36-.82Zm33.9-5.77a3.63,3.63,0,0,0-2.83-1.13H197.6a4,4,0,0,0-2.83,1.13L192,72.07l-.92-3.91H184.9l1.13,4.74V95.46h6.54V79.08a1,1,0,0,1,.36-.83l4.48-4.48a1.1,1.1,0,0,1,.83-.36h3.55a.94.94,0,0,1,.78.36l.46.47a1.17,1.17,0,0,1,.36.82V95.41H210V74.75a4.2,4.2,0,0,0-1.18-2.94ZM226,57.18h-6.55v11h-4.84V73.9h4.84V89.3a4.17,4.17,0,0,0,1.19,2.94l2.11,2.11a3.77,3.77,0,0,0,2.83,1.13h9.64V89.69h-8a1.07,1.07,0,0,1-.82-.36h-.06a1.24,1.24,0,0,1-.36-.83V73.88h9.28V68.16H226Zm38.17,14.63a4,4,0,0,1,1.18,2.94v8.91H246.64v4.9a1,1,0,0,0,.36.82l.05.05a1.2,1.2,0,0,0,.78.36h9.78a1,1,0,0,0,.78-.36l2.88-2.88,4.07,4.07-3.71,3.71a3.77,3.77,0,0,1-2.83,1.13H246.59a4,4,0,0,1-2.83-1.13l-2.53-2.53a4,4,0,0,1-1.18-2.93V74.75a4.2,4.2,0,0,1,1.18-2.94l2.53-2.52a3.77,3.77,0,0,1,2.83-1.13H258.8a4,4,0,0,1,2.83,1.13Zm-5.36,3.25a1,1,0,0,0-.36-.82l-.05-.06a1.25,1.25,0,0,0-.77-.36h-9.79a.93.93,0,0,0-.77.36l-.06.06a1,1,0,0,0-.36.82v3.19H258.9Zm60.79-1.18V68.16h-9.22v-11h-6.54v11H299v5.72h4.85v15.4a4.2,4.2,0,0,0,1.18,2.94l2.11,2.11A3.65,3.65,0,0,0,310,95.46h9.63V89.69h-8a1.18,1.18,0,0,1-.82-.36h0a1,1,0,0,1-.36-.83V73.88ZM105.08,58.32a3.78,3.78,0,0,0-2.84-1.14H66.54a4,4,0,0,0-2.83,1.14l-2.53,2.52A3.91,3.91,0,0,0,60,63.78v9.58h6.54V64.14a1.06,1.06,0,0,1,.36-.83v-.05a1.38,1.38,0,0,1,.83-.36h33.33a1.1,1.1,0,0,1,.82.36l.06.05a1.26,1.26,0,0,1,.36.83V99.48a1,1,0,0,1-.36.82h-.06a1.18,1.18,0,0,1-.82.37H67.73a1.11,1.11,0,0,1-.83-.37h-.05a.94.94,0,0,1-.36-.82V85.88a.85.85,0,0,1,.36-.77l.05-.06a1.38,1.38,0,0,1,.83-.36H82.36l-5.67,5.57v5.15H78a3.77,3.77,0,0,0,2.78-1.13l2.42-2.43,8.19-8.13A2.27,2.27,0,0,0,92,82.53v-.1a2.6,2.6,0,0,0,.05-.62h0a2.6,2.6,0,0,0-.05-.62v-.1a4,4,0,0,0-.57-1.19l-8.8-8.75-1.81-1.81A3.85,3.85,0,0,0,78,68.21H76.69v5.15L79,75.52l3.45,3.35H66.54A3.93,3.93,0,0,0,63.71,80l-2.53,2.52A3.89,3.89,0,0,0,60,85.47V99.79a4.16,4.16,0,0,0,1.18,2.93l2.53,2.53a3.7,3.7,0,0,0,2.83,1.13h35.7a4,4,0,0,0,2.84-1.13l2.52-2.53a4.2,4.2,0,0,0,1.19-3V63.78a4.21,4.21,0,0,0-1.19-2.94Zm184.47,11-1.8,1.81L281.88,77,276,71.15l-1.81-1.81a3.85,3.85,0,0,0-2.78-1.13h-1.34v5.15l2.27,2.16L278,81a1.15,1.15,0,0,1,.26.67,1.22,1.22,0,0,1-.26.72l-7.88,7.83v5.15h1.34a3.77,3.77,0,0,0,2.78-1.13l2.43-2.43,5.25-5.25,5.25,5.25,2.43,2.43a3.63,3.63,0,0,0,2.83,1.13h1.34V90.26l-7.93-7.78a1.2,1.2,0,0,1-.26-.72.94.94,0,0,1,.26-.67l5.66-5.51,2.27-2.17V68.26h-1.34a3.62,3.62,0,0,0-2.89,1.08" fill="#a4b1cd"/>
    <path id="Path_17" data-name="Path 17" d="M124.14,108.6h3.24a5.18,5.18,0,0,1,2.84.77,2.81,2.81,0,0,1,.87,1,3.4,3.4,0,0,1,.31,1.55h0a3.35,3.35,0,0,1-.31,1.54,2.73,2.73,0,0,1-.87,1,3.24,3.24,0,0,1-1.29.57,7.73,7.73,0,0,1-1.55.21h-1.85V120h-1.39Zm3.35,5.72a2.74,2.74,0,0,0,1.85-.57,2.16,2.16,0,0,0,.62-1.7h0a1.89,1.89,0,0,0-.67-1.7,3.28,3.28,0,0,0-1.86-.52h-1.9v4.54Z" fill="#a4b1cd"/>
    <path id="Path_18" data-name="Path 18" d="M134.85,120.19a3.67,3.67,0,0,1-1.08-.16,2.31,2.31,0,0,1-.88-.46,1.71,1.71,0,0,1-.56-.77,3.45,3.45,0,0,1-.21-1.08,2.1,2.1,0,0,1,.36-1.24,2.26,2.26,0,0,1,.93-.77,6.7,6.7,0,0,1,1.34-.47,8,8,0,0,1,1.54-.15h1.19v-.62a2.17,2.17,0,0,0-.41-1.44,1.73,1.73,0,0,0-1.39-.47c-1.14,0-1.81.52-1.91,1.5h-1.34a3.21,3.21,0,0,1,.36-1.24,3,3,0,0,1,.77-.82,3.25,3.25,0,0,1,1-.47,4.91,4.91,0,0,1,1.19-.15,4.11,4.11,0,0,1,1.13.15,3,3,0,0,1,1,.47,2.39,2.39,0,0,1,.67.92,4,4,0,0,1,.26,1.45v5.51h-1.34v-1a2.87,2.87,0,0,1-1.08.87,2.18,2.18,0,0,1-1.55.47Zm.16-1a2.84,2.84,0,0,0,1-.16,1.84,1.84,0,0,0,.77-.41,1.88,1.88,0,0,0,.51-.62,2,2,0,0,0,.21-.87v-1h-1.13a7.32,7.32,0,0,0-1.14.1,4.12,4.12,0,0,0-.92.26,1.49,1.49,0,0,0-.62.51,1.24,1.24,0,0,0-.21.78,1.33,1.33,0,0,0,.36,1,1.53,1.53,0,0,0,1.16.38Z" fill="#a4b1cd"/>
    <path id="Path_19" data-name="Path 19" d="M140.93,111.69h1.34v1.49a2,2,0,0,1,.46-.67,2.78,2.78,0,0,1,.57-.51,2.5,2.5,0,0,1,.77-.36,2.84,2.84,0,0,1,1-.16v1.24a4.11,4.11,0,0,0-1.13.15,2.4,2.4,0,0,0-.88.42,1.93,1.93,0,0,0-.56.82,4,4,0,0,0-.21,1.29V120h-1.34Z" fill="#a4b1cd"/>
    <path id="Path_20" data-name="Path 20" d="M149.12,120.14a2.16,2.16,0,0,1-1.7-.62,2.32,2.32,0,0,1-.56-1.6v-5.15h-1.19v-1.13h1.19v-1.91h1.33v1.91h2v1.13h-2v5c0,.82.37,1.23,1,1.23a2,2,0,0,0,.56,0,.8.8,0,0,0,.47-.1V120a1.6,1.6,0,0,1-.47.11h-.67Z" fill="#a4b1cd"/>
    <path id="Path_21" data-name="Path 21" d="M158.86,120.19a4.22,4.22,0,0,1-1.65-.31,3.94,3.94,0,0,1-1.29-.88,3.78,3.78,0,0,1-.82-1.34,4.44,4.44,0,0,1-.31-1.7v-.1a4.93,4.93,0,0,1,.31-1.75,3.46,3.46,0,0,1,.87-1.34,3.94,3.94,0,0,1,1.29-.88,4.4,4.4,0,0,1,1.65-.3,4.6,4.6,0,0,1,1.65.3,3.94,3.94,0,0,1,1.29.88,3.88,3.88,0,0,1,.87,1.34,4.52,4.52,0,0,1,.31,1.75v.1a5,5,0,0,1-.31,1.76,3.5,3.5,0,0,1-.87,1.33,4.35,4.35,0,0,1-1.29.88,6,6,0,0,1-1.7.26Zm0-1.14a2.84,2.84,0,0,0,1.13-.2,2.8,2.8,0,0,0,.88-.62,4.591,4.591,0,0,0,.57-1,5.279,5.279,0,0,0,.2-1.29v-.1a3.5,3.5,0,0,0-.2-1.29,3.16,3.16,0,0,0-.57-1A2.15,2.15,0,0,0,160,113a2.54,2.54,0,0,0-1.13-.21,2.68,2.68,0,0,0-1.13.21,2.77,2.77,0,0,0-.88.61,5.06,5.06,0,0,0-.57,1,5.429,5.429,0,0,0-.2,1.29v.1a3.45,3.45,0,0,0,.72,2.27,2.58,2.58,0,0,0,2.1.78Z" fill="#a4b1cd"/>
    <path id="Path_22" data-name="Path 22" d="M164.89,112.82H163.7v-1.13h1.19v-1.34a2.88,2.88,0,0,1,.61-2,2.39,2.39,0,0,1,1.86-.72,1.45,1.45,0,0,1,.51,0,.887.887,0,0,1,.47.1V109a1,1,0,0,0-.41-.11h-.52a1.08,1.08,0,0,0-.93.42,1.63,1.63,0,0,0-.25,1v1.49h2.06v1.13h-2.06v7.22h-1.34Z" fill="#a4b1cd"/>
    <path id="Path_23" data-name="Path 23" d="M175.76,108.6H180l3.59,11.4h-3.46l-.61-2.11H175.7l-.61,2.11h-3Zm.67,7.05H179l-1.24-4.37Z" fill="#a4b1cd"/>
    <path id="Path_24" data-name="Path 24" d="M188,120.24a6,6,0,0,1-1.75-.26,3.83,3.83,0,0,1-1.4-.82,3.07,3.07,0,0,1-.92-1.34,4.93,4.93,0,0,1-.31-1.86v-.1A4.34,4.34,0,0,1,184,114a5.22,5.22,0,0,1,1-1.39,4.43,4.43,0,0,1,3.14-1.19,6.54,6.54,0,0,1,1.49.16,3.89,3.89,0,0,1,1.29.56,3.31,3.31,0,0,1,.93,1.08,3.82,3.82,0,0,1,.41,1.6h-2.68a1.55,1.55,0,0,0-.41-.93,1.3,1.3,0,0,0-.93-.31,1.51,1.51,0,0,0-1.18.52,2.69,2.69,0,0,0-.41,1.6v.1a2.86,2.86,0,0,0,.41,1.65,1.43,1.43,0,0,0,1.23.56,1.25,1.25,0,0,0,1-.36,1.56,1.56,0,0,0,.47-1h2.57a3.43,3.43,0,0,1-1.13,2.53,4.18,4.18,0,0,1-3.14,1.08Z" fill="#a4b1cd"/>
    <path id="Path_25" data-name="Path 25" d="M197.13,120.24a6.11,6.11,0,0,1-1.75-.26,3.79,3.79,0,0,1-1.39-.82,3.07,3.07,0,0,1-.92-1.34,4.93,4.93,0,0,1-.31-1.86v-.1a4.34,4.34,0,0,1,.36-1.85,4.8,4.8,0,0,1,1-1.39,4.43,4.43,0,0,1,3.14-1.19,6.539,6.539,0,0,1,1.49.16,3.89,3.89,0,0,1,1.29.56,3.31,3.31,0,0,1,.93,1.08,4,4,0,0,1,.41,1.6H198.7a1.61,1.61,0,0,0-.41-.93,1.3,1.3,0,0,0-.93-.31,1.49,1.49,0,0,0-1.18.52,2.68,2.68,0,0,0-.42,1.6v.1a2.86,2.86,0,0,0,.42,1.65,1.41,1.41,0,0,0,1.23.56,1.28,1.28,0,0,0,1-.36,1.55,1.55,0,0,0,.46-1h2.58a3.43,3.43,0,0,1-1.13,2.53,4.22,4.22,0,0,1-3.15,1.08Z" fill="#a4b1cd"/>
    <path id="Path_26" data-name="Path 26" d="M206.41,120.24a6.22,6.22,0,0,1-1.81-.26,4.33,4.33,0,0,1-1.44-.82,4.42,4.42,0,0,1-1-1.34,5,5,0,0,1-.36-1.8v-.11a4.11,4.11,0,0,1,.36-1.8,5.22,5.22,0,0,1,1-1.39,3.86,3.86,0,0,1,1.44-.88,5.22,5.22,0,0,1,1.76-.31,5.921,5.921,0,0,1,1.64.26,3.19,3.19,0,0,1,1.34.77,4.3,4.3,0,0,1,1.29,3.3v.77h-5.87a2,2,0,0,0,.51,1.29,1.69,1.69,0,0,0,1.24.47,1.47,1.47,0,0,0,1-.31,1.28,1.28,0,0,0,.41-.73h2.68a3,3,0,0,1-1.29,2.17,5.14,5.14,0,0,1-2.9.72Zm1.44-5.31a1.64,1.64,0,0,0-.41-1.18,1.47,1.47,0,0,0-1.08-.41,1.56,1.56,0,0,0-1.09.41,1.73,1.73,0,0,0-.51,1.18Z" fill="#a4b1cd"/>
    <path id="Path_27" data-name="Path 27" d="M211.66,111.69h2.84V113a2.61,2.61,0,0,1,1-1.14,3.11,3.11,0,0,1,1.75-.46,2.56,2.56,0,0,1,2,.77,3.46,3.46,0,0,1,.77,2.37V120h-2.84v-4.84a1.73,1.73,0,0,0-.3-1.08,1.28,1.28,0,0,0-.93-.36,1.4,1.4,0,0,0-1,.36,1.64,1.64,0,0,0-.41,1.18v4.69H211.7Z" fill="#a4b1cd"/>
    <path id="Path_28" data-name="Path 28" d="M224.8,120.24a3.12,3.12,0,0,1-2.16-.72,2.78,2.78,0,0,1-.78-2.17v-3.7h-1v-2h1V109.9h2.84v1.75h1.64v2H224.7v3.45a.9.9,0,0,0,.2.67.85.85,0,0,0,.62.2,1,1,0,0,0,.41,0,.488.488,0,0,0,.36-.1V120a4.538,4.538,0,0,0-.67.16,3.589,3.589,0,0,1-.82.1Z" fill="#a4b1cd"/>
    <path id="Path_29" data-name="Path 29" d="M230.21,120.24a2.75,2.75,0,0,1-1.14-.21,2.61,2.61,0,0,1-.87-.56,2.75,2.75,0,0,1-.62-1,3.87,3.87,0,0,1-.21-1.39v-5.46h2.84v5a1.41,1.41,0,0,0,.31,1,1.2,1.2,0,0,0,.87.36,1.3,1.3,0,0,0,1-.36,1.61,1.61,0,0,0,.36-1.18v-4.79h2.84V120h-2.84v-1.28a2.79,2.79,0,0,1-1,1.08,2.58,2.58,0,0,1-1.54.44Z" fill="#a4b1cd"/>
    <path id="Path_30" data-name="Path 30" d="M237.21,111.69h2.84v1.65a2.61,2.61,0,0,1,1.08-1.34,3.23,3.23,0,0,1,1.65-.41v2.67a3.63,3.63,0,0,0-2,.42,1.61,1.61,0,0,0-.72,1.44v4h-2.84Z" fill="#a4b1cd"/>
    <path id="Path_31" data-name="Path 31" d="M247.88,120.24a6.22,6.22,0,0,1-1.81-.26,4.33,4.33,0,0,1-1.44-.82,4.42,4.42,0,0,1-1-1.34,5,5,0,0,1-.36-1.8v-.11a4.11,4.11,0,0,1,.36-1.8,5.22,5.22,0,0,1,1-1.39,3.86,3.86,0,0,1,1.44-.88,5.22,5.22,0,0,1,1.76-.31,5.921,5.921,0,0,1,1.64.26,3.19,3.19,0,0,1,1.34.77,4.3,4.3,0,0,1,1.29,3.3v.77h-5.87a2,2,0,0,0,.51,1.29,1.69,1.69,0,0,0,1.24.47,1.47,1.47,0,0,0,1-.31,1.28,1.28,0,0,0,.41-.73h2.68a3,3,0,0,1-1.29,2.17,5.14,5.14,0,0,1-2.9.72Zm1.44-5.31a1.64,1.64,0,0,0-.41-1.18,1.47,1.47,0,0,0-1.08-.41,1.56,1.56,0,0,0-1.09.41,1.73,1.73,0,0,0-.51,1.18Z" fill="#a4b1cd"/>
    <path id="Path_32" data-name="Path 32" d="M260.45,120.24a5.48,5.48,0,0,1-3.61-1,3.83,3.83,0,0,1-1.29-2.83h3.09a1.86,1.86,0,0,0,.11.56.91.91,0,0,0,.31.47.89.89,0,0,0,.51.31,3.77,3.77,0,0,0,.83.1,1.67,1.67,0,0,0,1.08-.31,1,1,0,0,0,.36-.82,1.579,1.579,0,0,0-.1-.47c-.06-.15-.16-.2-.31-.31a3.63,3.63,0,0,0-.57-.2c-.26-.05-.52-.11-.88-.16a13.591,13.591,0,0,1-2.06-.41,3.31,3.31,0,0,1-1.34-.72,2.42,2.42,0,0,1-.72-1,4.48,4.48,0,0,1-.2-1.49,3.44,3.44,0,0,1,.31-1.45,3.15,3.15,0,0,1,.87-1.13,3.53,3.53,0,0,1,1.39-.72,6.85,6.85,0,0,1,1.86-.26,5.09,5.09,0,0,1,3.19.88,3.68,3.68,0,0,1,1.29,2.68h-3a1.34,1.34,0,0,0-.46-.93,1.92,1.92,0,0,0-2,0,.91.91,0,0,0-.31.72.56.56,0,0,0,.1.41.91.91,0,0,0,.31.31,2.76,2.76,0,0,0,.52.26c.2,0,.51.1.87.15a16.339,16.339,0,0,1,1.91.36,5.87,5.87,0,0,1,1.39.62,2.68,2.68,0,0,1,.82,1,3.43,3.43,0,0,1,.26,1.55,3.621,3.621,0,0,1-.31,1.49,3.27,3.27,0,0,1-.88,1.18,4.249,4.249,0,0,1-1.44.83,4,4,0,0,1-1.85.36Z" fill="#a4b1cd"/>
    <path id="Path_33" data-name="Path 33" d="M270.29,120.24a6.22,6.22,0,0,1-1.81-.26,4,4,0,0,1-1.44-.82,3.6,3.6,0,0,1-.93-1.34,4.141,4.141,0,0,1-.36-1.8v-.11a4.11,4.11,0,0,1,.36-1.8,5.219,5.219,0,0,1,1-1.39,3.9,3.9,0,0,1,1.45-.88,5.11,5.11,0,0,1,1.75-.31,6.05,6.05,0,0,1,1.65.26,3.32,3.32,0,0,1,1.34.77,4.53,4.53,0,0,1,.92,1.34,4.43,4.43,0,0,1,.36,2v.77h-5.87a2,2,0,0,0,.52,1.29,1.65,1.65,0,0,0,1.23.47,1.46,1.46,0,0,0,1-.31,1.28,1.28,0,0,0,.41-.73h2.68a3,3,0,0,1-1.28,2.17,5.5,5.5,0,0,1-3,.72Zm1.44-5.31a1.64,1.64,0,0,0-.41-1.18,1.47,1.47,0,0,0-1.08-.41,1.56,1.56,0,0,0-1.09.41,1.69,1.69,0,0,0-.51,1.18Z" fill="#a4b1cd"/>
    <path id="Path_34" data-name="Path 34" d="M279.51,120.24a6,6,0,0,1-1.75-.26,3.71,3.71,0,0,1-1.39-.82,3,3,0,0,1-.93-1.34,4.93,4.93,0,0,1-.31-1.86v-.1a4.34,4.34,0,0,1,.36-1.85,5.221,5.221,0,0,1,1-1.39,4.426,4.426,0,0,1,3.14-1.19,6.629,6.629,0,0,1,1.5.16,3.94,3.94,0,0,1,1.28.56,3.31,3.31,0,0,1,.93,1.08,3.82,3.82,0,0,1,.41,1.6h-2.68a1.55,1.55,0,0,0-.41-.93,1.27,1.27,0,0,0-.93-.31,1.51,1.51,0,0,0-1.18.52,2.69,2.69,0,0,0-.41,1.6v.1a2.86,2.86,0,0,0,.41,1.65,1.43,1.43,0,0,0,1.24.56,1.25,1.25,0,0,0,1-.36,1.56,1.56,0,0,0,.47-1h2.57a3.43,3.43,0,0,1-1.13,2.53,4.18,4.18,0,0,1-3.14,1.08Z" fill="#a4b1cd"/>
    <path id="Path_35" data-name="Path 35" d="M287.44,120.24a2.618,2.618,0,0,1-2.62-1.77,3.879,3.879,0,0,1-.2-1.39v-5.46h2.83v5a1.46,1.46,0,0,0,.31,1,1.24,1.24,0,0,0,.88.36,1.33,1.33,0,0,0,1-.36,1.65,1.65,0,0,0,.36-1.18v-4.79h2.83V120H290v-1.28a2.89,2.89,0,0,1-1,1.08A2.55,2.55,0,0,1,287.44,120.24Z" fill="#a4b1cd"/>
    <path id="Path_36" data-name="Path 36" d="M294.45,111.69h2.83v1.65a2.61,2.61,0,0,1,1.08-1.34,3.25,3.25,0,0,1,1.65-.41v2.67a3.67,3.67,0,0,0-2,.42,1.61,1.61,0,0,0-.72,1.44v4h-2.83Z" fill="#a4b1cd"/>
    <path id="Path_37" data-name="Path 37" d="M302.59,110.92a1.7,1.7,0,0,1-1.14-.42,1.3,1.3,0,0,1-.46-1,1.52,1.52,0,0,1,.46-1.08,1.48,1.48,0,0,1,1.14-.41,1.68,1.68,0,0,1,1.13.41,1.33,1.33,0,0,1,.46,1.08,1.27,1.27,0,0,1-.46,1,1.79,1.79,0,0,1-1.13.42Zm-1.44.77H304V120h-2.83Z" fill="#a4b1cd"/>
    <path id="Path_38" data-name="Path 38" d="M308.92,120.24a3.16,3.16,0,0,1-2.16-.72,2.81,2.81,0,0,1-.77-2.17v-3.7h-1v-2h1V109.9h2.83v1.75h1.65v2h-1.65v3.45a.86.86,0,0,0,.21.67.83.83,0,0,0,.62.2,1.05,1.05,0,0,0,.41,0,.5.5,0,0,0,.36-.1V120a6.741,6.741,0,0,1-.67.16,3.4,3.4,0,0,1-.83.1Z" fill="#a4b1cd"/>
    <path id="Path_39" data-name="Path 39" d="M314.23,119.21l-3.35-7.52H314l1.7,4.43,1.6-4.43H320l-4.48,11.13h-2.73Z" fill="#a4b1cd"/>
  </g>
</svg>
