<svg xmlns="http://www.w3.org/2000/svg" width="327.88" height="60.5" viewBox="0 0 327.88 60.5">
  <g id="NLL-Components" transform="translate(-26.12 -59.75)">
    <g id="Footer">
      <g id="FOOTER---Desktop">
        <g id="FOOTER-2" data-name="FOOTER">
          <g id="Copyright">
            <g id="logo_norton_lifelock_179x34" data-name="logo norton lifelock 179x34">
              <path id="Fill-1" d="M65,106.71a17.89,17.89,0,1,1,5.25-12.66A17.89,17.89,0,0,1,65,106.71ZM52.26,67.85a26.2,26.2,0,1,0,26.26,26.2,26.2,26.2,0,0,0-26.26-26.2Z" fill="#a4b1cd"/>
              <path id="Fill-3" d="M80.86,65.86h2.05V63.82H80.86Z" fill="#a4b1cd"/>
              <path id="Fill-4" d="M80.86,61.8h2.05V59.75H80.86Z" fill="#a4b1cd"/>
              <path id="Fill-5" d="M75.11,67.84h1.91V65.85H75.11Z" fill="#a4b1cd"/>
              <path id="Fill-6" d="M71.31,71.67h1.93v-1.9H71.31Z" fill="#a4b1cd"/>
              <path id="Fill-7" d="M77.02,69.77h2.14V67.84H77.02Z" fill="#a4b1cd"/>
              <path id="Fill-8" d="M69.4,69.77h1.91V67.94H69.4Z" fill="#a4b1cd"/>
              <path id="Fill-9" d="M75.11,71.67h1.91v-1.9H75.11Z" fill="#a4b1cd"/>
              <path id="Fill-10" d="M78.84,63.82h2.02V61.8H78.84Z" fill="#a4b1cd"/>
              <path id="Fill-11" d="M75.11,65.85h3.73V63.82H75.11Z" fill="#a4b1cd"/>
              <path id="Fill-12" d="M73.24,69.77H75.1V65.85H73.24Z" fill="#a4b1cd"/>
              <path id="Fill-13" d="M73.24,73.6H71.31V71.67H68.12v1.39H66.4v1.71h1.92v1.9H66.4v-1.9h-2v3H62.44v1.91H61.16v1.91h-1.4A107.06,107.06,0,0,0,53,94.18c-4.3-6-7.65-8.35-10.28-9.21-1.42-.43-3.13,1.11-.77,3.54,5.42,5.95,7.12,10.87,8.77,14.8.87,2.07,4.78,2.39,5.56.29A63.87,63.87,0,0,1,63.26,90V87.88h1.53V86H66.4V83.74h1.92V81.59H66.38v-2h1.94v2h1.9V79.66h1.52V77.33h1.71V75.72h1.66v-4H73.24V73.6" fill="#a4b1cd"/>
              <path id="Fill-14" d="M176.43,100.38a6.7,6.7,0,0,1-.84,2.15,4.54,4.54,0,0,1-1.62,1.55,5.09,5.09,0,0,1-2.51.57,4.94,4.94,0,0,1-2.48-.57,4.66,4.66,0,0,1-1.6-1.55,6.48,6.48,0,0,1-.84-2.15A12,12,0,0,1,166.3,98a12.389,12.389,0,0,1,.24-2.44,6.31,6.31,0,0,1,.84-2.15,4.57,4.57,0,0,1,4.08-2.14,4.88,4.88,0,0,1,2.51.6,4.61,4.61,0,0,1,1.62,1.54,6.53,6.53,0,0,1,.84,2.15,12.311,12.311,0,0,1,.24,2.44A12,12,0,0,1,176.43,100.38ZM179,90.32a9.18,9.18,0,0,0-3.28-2.11,11.72,11.72,0,0,0-4.3-.75,11.56,11.56,0,0,0-4.27.75,9.09,9.09,0,0,0-5.35,5.41,12.29,12.29,0,0,0-.7,4.38,12,12,0,0,0,.74,4.32,9.1,9.1,0,0,0,5.34,5.38,13,13,0,0,0,8.58,0,9.15,9.15,0,0,0,3.28-2.1,9.41,9.41,0,0,0,2.09-3.28,12.08,12.08,0,0,0,.74-4.32,12.29,12.29,0,0,0-.74-4.35,9.49,9.49,0,0,0-2.09-3.3Z" fill="#a4b1cd"/>
              <path id="Fill-15" d="M201.56,89.67a5.25,5.25,0,0,0-2.19-1.62,9.51,9.51,0,0,0-3.62-.59,7.88,7.88,0,0,0-3.39.78,6.9,6.9,0,0,0-2.94,2.49l-.06.1a.16.16,0,0,1-.13.08.072.072,0,0,1-.07-.08V88h-4.92v19.88h5.2V97.46a7.74,7.74,0,0,1,1.07-4.59,4.15,4.15,0,0,1,3.5-1.44,3.28,3.28,0,0,1,3,1.34,7.23,7.23,0,0,1,.83,3.86v11.26H203V95.61a16.11,16.11,0,0,0-.33-3.39,6.27,6.27,0,0,0-1.13-2.55" fill="#a4b1cd"/>
              <path id="Fill-16" d="M105.31,99.64,93.1,80.32H87.49v27.62h5.16V88.53l.41.64,11.76,18.77h5.65V80.32h-5.16V99.64" fill="#a4b1cd"/>
              <path id="Fill-17" d="M128.17,100.38a6.27,6.27,0,0,1-.84,2.15,4.46,4.46,0,0,1-1.62,1.55,5.08,5.08,0,0,1-2.5.57,5,5,0,0,1-2.49-.57,4.66,4.66,0,0,1-1.6-1.55,6.7,6.7,0,0,1-.84-2.15A12,12,0,0,1,118,98a12.389,12.389,0,0,1,.24-2.44,6.53,6.53,0,0,1,.84-2.15,4.72,4.72,0,0,1,1.6-1.54,4.78,4.78,0,0,1,2.49-.6,4.87,4.87,0,0,1,2.5.6,4.61,4.61,0,0,1,1.62,1.54,6.12,6.12,0,0,1,.84,2.15,12.311,12.311,0,0,1,.24,2.44,12,12,0,0,1-.2,2.38Zm2.61-10.06a9.18,9.18,0,0,0-3.28-2.11,11.7,11.7,0,0,0-4.29-.75,11.58,11.58,0,0,0-4.28.75,9.14,9.14,0,0,0-3.25,2.11,9.28,9.28,0,0,0-2.1,3.3,12.29,12.29,0,0,0-.74,4.35,12,12,0,0,0,.74,4.32,9.29,9.29,0,0,0,2.1,3.28,9.12,9.12,0,0,0,3.25,2.1,12,12,0,0,0,4.28.73,12.24,12.24,0,0,0,4.3-.73,9.2,9.2,0,0,0,3.27-2.1,9.36,9.36,0,0,0,2.09-3.28,12,12,0,0,0,.74-4.32,12.29,12.29,0,0,0-.74-4.35,9.35,9.35,0,0,0-2.09-3.3Z" fill="#a4b1cd"/>
              <path id="Fill-18" d="M155.84,82h-5.19l-.06,5.76h-1.35a13.76,13.76,0,0,0-4.62.69,5.76,5.76,0,0,0-3.13,2.62,6,6,0,0,0-.37.81A.12.12,0,0,1,141,92c-.06,0-.1,0-.1-.09V88.1H136V108h5.2V99a11.27,11.27,0,0,1,.28-2.6A6.5,6.5,0,0,1,142,95c.94-1.5,3-3,7.36-3h1.2l-.11,11.6a5,5,0,0,0,.47,2.38,3.36,3.36,0,0,0,1.31,1.38,5.67,5.67,0,0,0,2,.68,17.229,17.229,0,0,0,2.45.2h1.69a11.361,11.361,0,0,0,1.38-.11v-3.88a5.8,5.8,0,0,1-.6.06h-.93a2.94,2.94,0,0,1-2.05-.56,2.85,2.85,0,0,1-.52-2l.1-9.72h4V87.75h-4l.05-5.71" fill="#a4b1cd"/>
              <path id="Fill-19" d="M214.73,82.42h-6.05v25.39h18.41v-4.67H214.73V82.42" fill="#a4b1cd"/>
              <path id="Fill-20" d="M229.69,107.81h5.61V87.87h-5.61Z" fill="#a4b1cd"/>
              <path id="Fill-21" d="M229.69,85.1h5.61V80.32h-5.61Z" fill="#a4b1cd"/>
              <path id="Fill-22" d="M242.42,82.28c-.85.83-1.18,2.14-1.18,4.64v1h-3.09v4.35h3.09v15.59H247V92.22h4.16V87.9h-4.19v-.8c0-1,.07-1.38.26-1.59s.44-.26,1.19-.26h2.74v-4.2h-4.67c-2.19,0-3.16.4-4,1.23" fill="#a4b1cd"/>
              <path id="Fill-23" d="M258.17,96c0-2.79.22-3.41.48-3.66a2.856,2.856,0,0,1,1.82-.37h3.08c1.15,0,1.49.11,1.71.33s.44,1,.44,3.7Zm7.28-8.12h-6.91c-2.08,0-3.19.32-4.05,1.19-1.33,1.34-1.85,2.9-1.85,8.78s.52,7.43,1.85,8.74c.89.91,2,1.23,4.05,1.23h7.57c2.19,0,3-.54,3.64-1.16,1-1,1.34-2.13,1.38-5.1h-5.24c0,1.42-.11,1.58-.3,1.8s-.52.37-1.67.37h-3.45c-1,0-1.56-.08-1.82-.37s-.45-.8-.48-4h12.14c.67,0,.82-.21.82-.79v-.94c0-5.73-.3-7.29-1.64-8.6-.85-.87-2-1.19-4-1.19Z" fill="#a4b1cd"/>
              <path id="Fill-24" d="M277.34,82.43H274.4v25.38h16.16v-2.46H277.34V82.43" fill="#a4b1cd"/>
              <path id="Fill-25" d="M305.35,104.88c-.41.4-1,.54-2.37.54h-4.61c-1.41,0-2-.14-2.41-.54-.59-.59-.89-1.53-.89-6.79s.3-6.16.89-6.74,1-.55,2.41-.55H303c1.41,0,2,.11,2.37.55.6.58.93,1.52.93,6.74S306,104.29,305.35,104.88Zm-2.08-16.47h-5.2c-2,0-3.19.26-4,1.09-1.26,1.23-1.71,2.79-1.71,8.59s.45,7.4,1.71,8.63c.85.84,2,1.09,4,1.09h5.2c2,0,3.19-.25,4-1.09,1.3-1.23,1.75-2.79,1.75-8.63s-.45-7.36-1.75-8.59c-.82-.83-2-1.09-4-1.09Z" fill="#a4b1cd"/>
              <path id="Fill-26" d="M324.38,104.91c-.45.4-.93.51-2.15.51h-4.35c-1.41,0-2-.15-2.41-.54-.59-.58-.89-1.53-.89-6.79s.3-6.16.89-6.74,1-.55,2.41-.55h4.35c1.22,0,1.67.11,2.08.51s.63,1,.74,3.45h2.67c-.07-3.23-.45-4.46-1.37-5.37-.74-.73-1.6-1-3.57-1h-5.19c-2,0-3.2.25-4,1.09-1.26,1.23-1.71,2.79-1.71,8.59s.45,7.4,1.71,8.64c.85.83,2,1.08,4,1.08h5.23c1.89,0,2.82-.29,3.53-1,1-.94,1.33-2.06,1.45-5.58h-2.68c-.07,2.46-.29,3.23-.74,3.66" fill="#a4b1cd"/>
              <path id="Fill-27" d="M346.27,88.41h-3.31l-7.31,8.49h-2.04V81.7h-2.75v26.11h2.75V99.14h1.96l7.54,8.67h3.45l-8.76-9.93,8.47-9.47" fill="#a4b1cd"/>
              <path id="Fill-28" d="M352.94,87.55l-.64,2.4-.68-2.4h-1.06v3.29h.67V88.32l.72,2.52h.63l.73-2.52v2.52H354V87.55h-1.06" fill="#a4b1cd"/>
              <path id="Fill-29" d="M347.42,88.09h.88v2.75h.71V88.09h.87v-.54h-2.46v.54" fill="#a4b1cd"/>
            </g>
          </g>
        </g>
      </g>
    </g>
  </g>
</svg>
