<svg id="ic-linux" xmlns="http://www.w3.org/2000/svg" width="39.706" height="39.706" viewBox="0 0 39.706 39.706">
  <g id="noun_Penguin_1798134-Copy-7">
    <path id="Shape" d="M33.828,5.887a19.53,19.53,0,0,0-27.848,0A20.23,20.23,0,0,0,.051,19.9c0,12.431,7.421,19.853,19.853,19.853S39.757,32.335,39.757,19.9A20.148,20.148,0,0,0,33.828,5.887ZM19.9,36.921C8.931,36.921,2.887,30.877,2.887,19.9a16.176,16.176,0,0,1,.466-3.764,8.859,8.859,0,0,1,6.826-4.713,8.676,8.676,0,0,1,7.359,3.108,3.144,3.144,0,0,0,4.731,0,8.663,8.663,0,0,1,7.359-3.107,8.86,8.86,0,0,1,6.826,4.713,16.161,16.161,0,0,1,.467,3.764C36.921,30.877,30.877,36.921,19.9,36.921Z" transform="translate(-0.051 -0.051)" fill="#a4b1cd"/>
    <path id="Path" d="M8.919,9.919A2.836,2.836,0,1,1,6.083,7.082,2.839,2.839,0,0,1,8.919,9.919Z" transform="translate(3.843 8.516)" fill="#a4b1cd"/>
    <path id="Path-2" data-name="Path" d="M17.868,9.919a2.836,2.836,0,1,1-2.836-2.836A2.839,2.839,0,0,1,17.868,9.919Z" transform="translate(14.747 8.516)" fill="#a4b1cd"/>
    <path id="Path-3" data-name="Path" d="M17.156,11.292a8.528,8.528,0,0,0-10.082,0,1.418,1.418,0,0,0-.6,1.5c.728,3.178,1.392,4.88,4.69,7.83a1.417,1.417,0,0,0,1.883.007c3.294-2.906,3.962-4.62,4.7-7.837A1.417,1.417,0,0,0,17.156,11.292Z" transform="translate(7.737 11.636)" fill="#a4b1cd"/>
  </g>
</svg>
