<svg id="ic-windows" xmlns="http://www.w3.org/2000/svg" width="36.849" height="34.522" viewBox="0 0 36.849 34.522">
  <g id="Bold-Copy-6" transform="translate(0 0)">
    <path id="Shape" d="M24,10.108a16.347,16.347,0,0,1-5.652,1.116,9.574,9.574,0,0,1-6.282-2.1.746.746,0,0,0-.709-.135.784.784,0,0,0-.5.534L7.783,20.68a.826.826,0,0,0,0,.51c.276.718,4.608,2.838,7.1,2.838a17.152,17.152,0,0,0,6.681-1.594.787.787,0,0,0,.445-.51l3.072-10.907a.818.818,0,0,0-.212-.8.747.747,0,0,0-.786-.168Z" transform="translate(7.928 10.493)" fill="#a4b1cd"/>
    <path id="Shape-2" data-name="Shape" d="M17.2,9.6a11.574,11.574,0,0,0-6.4-2.264A18.036,18.036,0,0,0,4.318,8.93a.787.787,0,0,0-.445.51L.709,20.65a.817.817,0,0,0,.226.813.746.746,0,0,0,.8.144,14.694,14.694,0,0,1,5.591-1.324A9.679,9.679,0,0,1,13.134,22.4a.746.746,0,0,0,.43.128.727.727,0,0,0,.261,0,.786.786,0,0,0,.476-.526l3.3-11.5A.808.808,0,0,0,17.2,9.6Z" transform="translate(-0.679 8.53)" fill="#a4b1cd"/>
    <path id="Shape-3" data-name="Shape" d="M3.516,14.312a14.893,14.893,0,0,1,5.759-1.4,9.625,9.625,0,0,1,5.591,2.1.747.747,0,0,0,.43.128.725.725,0,0,0,.261,0,.786.786,0,0,0,.476-.526L19.212,3.31a.827.827,0,0,0,0-.223h0a.8.8,0,0,0-.369-.686A11.409,11.409,0,0,0,12.086.184,16.515,16.515,0,0,0,5.943,1.667a.788.788,0,0,0-.445.526L2.425,13.355a.817.817,0,0,0,.226.813.746.746,0,0,0,.8.144Z" transform="translate(1.413 -0.184)" fill="#a4b1cd"/>
    <path id="Shape-4" data-name="Shape" d="M26.6,2.811a.746.746,0,0,0-.814-.128,13.961,13.961,0,0,1-5.729,1.435,9.717,9.717,0,0,1-6.144-2.153.73.73,0,0,0-.706-.128.784.784,0,0,0-.507.542L9.476,13.686a1.008,1.008,0,0,0,.338.909,12.375,12.375,0,0,0,7.157,2.28,14.366,14.366,0,0,0,6.312-1.595.786.786,0,0,0,.261-.207.824.824,0,0,0,.169-.3L26.786,3.608A.819.819,0,0,0,26.6,2.811Z" transform="translate(10.028 1.781)" fill="#a4b1cd"/>
  </g>
</svg>
